<svg width="14" height="14" viewBox="0 0 14 14" fill="none" xmlns="http://www.w3.org/2000/svg">
<path d="M12.9266 0H5.18788C4.63634 0 4.18767 0.4487 4.18767 1.00021V3.34777H5.10071V1.00021C5.10071 0.952152 5.13982 0.913043 5.18788 0.913043H12.9266C12.9746 0.913043 13.0138 0.952152 13.0138 1.00021V8.73892C13.0138 8.78701 12.9746 8.82612 12.9266 8.82612H10.6522V9.73916H12.9266C13.4781 9.73916 13.9268 9.29046 13.9268 8.73892V1.00021C13.9268 0.4487 13.4781 0 12.9266 0Z" fill="#007AFF"/>
<path d="M8.73892 4.2608H1.00024C0.4487 4.2608 0 4.7095 0 5.26104V12.9998C3.04348e-05 13.5513 0.4487 14 1.00024 14H8.73895C9.29049 14 9.73919 13.5513 9.73919 12.9998V5.26104C9.73922 4.7095 9.29046 4.2608 8.73892 4.2608ZM8.73898 13.087H1.00024C0.952152 13.087 0.913043 13.0478 0.913043 12.9998V5.26104C0.913043 5.21296 0.952152 5.17385 1.00024 5.17385H8.73895C8.78704 5.17385 8.82615 5.21296 8.82615 5.26104V12.9998H8.82618C8.82618 13.0478 8.78704 13.087 8.73898 13.087Z" fill="#007AFF"/>
</svg>
