<svg width="21" height="20" viewBox="0 0 21 20" fill="none" xmlns="http://www.w3.org/2000/svg">
<path d="M20.9057 7.5686C20.8493 7.4048 20.7055 7.28651 20.5344 7.26373L13.9443 6.39014L10.8721 0.231365C10.7192 -0.0771218 10.2105 -0.0771218 10.0577 0.231365L6.98555 6.39019L0.395398 7.26378C0.224305 7.28651 0.0796169 7.40484 0.0241216 7.56864C-0.0313736 7.73244 0.0104718 7.91351 0.133321 8.03636L4.96627 12.8693L3.64953 19.4549C3.61587 19.626 3.68139 19.7998 3.81968 19.9062C3.95801 20.0118 4.14544 20.0291 4.29926 19.9518L10.4654 16.8687L16.6315 19.9518C16.6961 19.9836 16.7653 20 16.8344 20C16.9318 20 17.0301 19.9681 17.111 19.9063C17.2484 19.8007 17.3149 19.626 17.2812 19.4549L15.9644 12.8694L20.7974 8.0364C20.9184 7.91441 20.9603 7.73333 20.9057 7.5686ZM16.9017 9.35673L13.9879 12.2714L14.7423 16.0434C14.7751 16.1062 14.7933 16.1771 14.7933 16.2527C14.7933 16.5038 14.5894 16.7077 14.3383 16.7077H14.3201C14.2509 16.7077 14.1817 16.6913 14.1162 16.6595L10.4635 14.834L6.81079 16.6595C6.65519 16.7368 6.46865 16.7204 6.33121 16.6139C6.19382 16.5084 6.12736 16.3336 6.16106 16.1626L6.9391 12.2705L4.02532 9.35583C3.90248 9.23298 3.86063 9.05191 3.91613 8.88811C3.97256 8.72431 4.11631 8.60603 4.2874 8.58325L8.18034 8.06729L10.0558 4.30901C10.2087 4.00052 10.7174 4.00052 10.8703 4.30901L12.7458 8.06729L16.6387 8.58325C16.8098 8.60599 16.9545 8.72431 17.01 8.88811C17.0664 9.05281 17.0246 9.23388 16.9017 9.35673Z" fill="#007AFF"/>
</svg>
