<svg width="24" height="24" viewBox="0 0 24 24" fill="none" xmlns="http://www.w3.org/2000/svg">
<path d="M21.6001 0.266602H2.40006C1.22139 0.266602 0.266724 1.22127 0.266724 2.39994V21.5999C0.266724 22.7786 1.22139 23.7333 2.40006 23.7333H21.6001C22.7787 23.7333 23.7334 22.7786 23.7334 21.5999V2.39994C23.7334 1.22127 22.7787 0.266602 21.6001 0.266602ZM9.86672 6.6666H3.46672C2.87792 6.6666 2.40006 6.18874 2.40006 5.59994C2.40006 5.01114 2.87792 4.53327 3.46672 4.53327H9.86672C10.4555 4.53327 10.9334 5.01114 10.9334 5.59994C10.9334 6.18874 10.4555 6.6666 9.86672 6.6666ZM20.5334 7.73327H14.1334C13.5446 7.73327 13.0667 7.2554 13.0667 6.6666V4.53327C13.0667 3.94447 13.5446 3.4666 14.1334 3.4666H20.5334C21.1222 3.4666 21.6001 3.94447 21.6001 4.53327V6.6666C21.6001 7.2554 21.1222 7.73327 20.5334 7.73327ZM9.86672 13.0666H3.46672C2.87792 13.0666 2.40006 12.5887 2.40006 11.9999C2.40006 11.4111 2.87792 10.9333 3.46672 10.9333H9.86672C10.4555 10.9333 10.9334 11.4111 10.9334 11.9999C10.9334 12.5887 10.4555 13.0666 9.86672 13.0666ZM20.5334 19.4666H14.1334C13.5446 19.4666 13.0667 18.9887 13.0667 18.3999C13.0667 17.8111 13.5446 17.3333 14.1334 17.3333H20.5334C21.1222 17.3333 21.6001 17.8111 21.6001 18.3999C21.6001 18.9887 21.1222 19.4666 20.5334 19.4666ZM20.5334 14.1333H14.1334C13.5446 14.1333 13.0667 13.6554 13.0667 13.0666V10.9333C13.0667 10.3445 13.5446 9.8666 14.1334 9.8666H20.5334C21.1222 9.8666 21.6001 10.3445 21.6001 10.9333V13.0666C21.6001 13.6554 21.1222 14.1333 20.5334 14.1333ZM9.86672 20.5333H7.73339C7.14459 20.5333 6.66672 20.0554 6.66672 19.4666V17.3333C6.66672 16.7445 7.14459 16.2666 7.73339 16.2666H9.86672C10.4555 16.2666 10.9334 16.7445 10.9334 17.3333V19.4666C10.9334 20.0554 10.4555 20.5333 9.86672 20.5333Z" fill="#00833E"/>
</svg>
