<svg width="55" height="50" viewBox="0 0 55 50" fill="none" xmlns="http://www.w3.org/2000/svg">
<path d="M50.102 35.041C46.8658 38.2847 40.2968 37.9905 40.2968 37.9905C40.7139 36.1437 42.6283 35.8821 43.079 33.3535C43.2817 32.2163 42.2582 30.8625 40.0166 34.1445C39.3396 35.1358 37.8025 36.7823 33.6431 38.9661C28.4989 41.6667 28.5877 45.3752 28.8079 47.4598C28.9067 48.3929 29.1663 49.2069 29.5025 49.9054C29.5025 49.9054 30.6541 46.9027 36.3021 44.666C41.8769 42.4586 47.7679 40.2931 50.7685 37.5298C53.051 35.4276 54.8905 31.1857 54.8905 31.1857C52.5227 30.7039 53.3385 31.7972 50.102 35.041Z" fill="#00833E"/>
<path d="M4.74238 34.8937C7.94024 38.1753 14.5122 37.959 14.5122 37.959C14.1169 36.1072 12.2057 35.8229 11.7846 33.2892C11.5955 32.15 12.6348 30.8081 14.8377 34.1164C15.5032 35.1154 17.0208 36.78 21.1541 39.0124C26.2661 41.7739 26.1337 45.481 25.8888 47.5627C25.7791 48.4945 25.51 49.3056 25.1652 50.0003C25.1652 50.0003 24.0491 46.9838 18.4282 44.6808C12.8797 42.4076 7.01465 40.1731 4.04678 37.3745C1.78922 35.2452 0 30.9823 0 30.9823C2.3731 30.5283 1.54434 31.6121 4.74238 34.8937Z" fill="#00833E"/>
<path d="M41.0602 27.5649C45.217 27.5649 48.5868 24.1951 48.5868 20.0383C48.5868 15.8815 45.217 12.5117 41.0602 12.5117C36.9034 12.5117 33.5336 15.8815 33.5336 20.0383C33.5336 24.1951 36.9034 27.5649 41.0602 27.5649Z" fill="#FDB719"/>
<path d="M13.6955 27.5649C17.8523 27.5649 21.2221 24.1951 21.2221 20.0383C21.2221 15.8815 17.8523 12.5117 13.6955 12.5117C9.53865 12.5117 6.16888 15.8815 6.16888 20.0383C6.16888 24.1951 9.53865 27.5649 13.6955 27.5649Z" fill="#FDB719"/>
<path d="M27.8519 0H27.0502V24.648H27.8519V0Z" fill="#414042"/>
<path d="M27.451 39.8333C31.6077 39.8333 34.9774 36.4636 34.9774 32.3069C34.9774 28.1502 31.6077 24.7805 27.451 24.7805C23.2942 24.7805 19.9246 28.1502 19.9246 32.3069C19.9246 36.4636 23.2942 39.8333 27.451 39.8333Z" fill="#FDB719"/>
<path d="M15.6843 20.3975H11.1136L10.2365 22.0593H16.5768L15.6843 20.3975ZM11.2041 20.5132L15.5915 20.5066L16.0171 21.2991H10.7897L11.2041 20.5132Z" fill="white"/>
<path d="M16.1304 22.6451C15.6919 22.6451 11.1522 22.6451 10.6826 22.6451C10.2134 22.6451 10.2365 22.1514 10.2365 22.1514H16.5768C16.5769 22.1514 16.5693 22.6451 16.1304 22.6451Z" fill="white"/>
<path d="M15.7493 17.379V19.8963C15.7493 20.034 15.6269 20.1467 15.4768 20.1467H11.2898C11.1401 20.1467 11.0173 20.034 11.0173 19.8963V17.3207C11.0173 17.183 11.1401 17.0703 11.2898 17.0703H14.7809V16.7586H11.1294C10.9853 16.7586 10.8672 16.8765 10.8672 17.0204V20.0582C10.8672 20.2021 10.9853 20.3198 11.1294 20.3198H15.6383C15.782 20.3198 15.8997 20.2021 15.8997 20.0582V17.3788H15.7493V17.379ZM13.3835 16.8511C13.4284 16.8511 13.4643 16.8872 13.4643 16.9317C13.4643 16.9766 13.4284 17.0126 13.3835 17.0126C13.339 17.0126 13.3027 16.9764 13.3027 16.9317C13.3027 16.8872 13.339 16.8511 13.3835 16.8511Z" fill="white"/>
<path d="M15.1506 17.1219L14.3343 16.124L13.9321 16.7455C13.9321 16.7455 14.2938 17.2912 14.8363 17.6426C15.3787 17.9937 15.9279 18.0375 15.9279 18.0375L16.3169 17.4367L15.1506 17.1219Z" fill="white"/>
<path d="M17.4377 17.6033L15.2261 17.0057L13.7755 15.2324L15.9917 15.8973L17.4377 17.6033Z" fill="white"/>
<path d="M17.1012 17.4573L16.9847 17.3818L16.3741 18.3247L16.4905 18.4002L17.1012 17.4573Z" fill="white"/>
<path d="M16.5511 18.6739C16.4097 18.8921 16.1915 19.0483 15.9154 19.1096C16.2059 18.8509 15.9726 18.6089 16.1136 18.3907C16.199 18.2592 16.439 18.2345 16.4815 18.3021C16.6288 18.3371 16.6499 18.5211 16.5511 18.6739Z" fill="white"/>
<mask id="path-14-inside-1_1_20" fill="white">
<path d="M14.08 12.0677C15.9279 6.38025 21.2776 2.25736 27.573 2.25736C33.8684 2.25736 39.2181 6.38025 41.066 12.0677H41.4508C39.5896 6.17533 34.0723 1.89148 27.573 1.89148C21.0737 1.89148 15.5564 6.17533 13.6952 12.0677H14.08Z"/>
</mask>
<path d="M14.08 12.0677V13.0677H14.8065L15.031 12.3767L14.08 12.0677ZM41.066 12.0677L40.115 12.3767L40.3395 13.0677H41.066V12.0677ZM41.4508 12.0677V13.0677H42.8153L42.4043 11.7665L41.4508 12.0677ZM13.6952 12.0677L12.7416 11.7665L12.3306 13.0677H13.6952V12.0677ZM15.031 12.3767C16.7494 7.08806 21.7245 3.25736 27.573 3.25736V1.25736C20.8306 1.25736 15.1064 5.67244 13.1289 11.7586L15.031 12.3767ZM27.573 3.25736C33.4215 3.25736 38.3966 7.08806 40.115 12.3767L42.0171 11.7586C40.0396 5.67244 34.3154 1.25736 27.573 1.25736V3.25736ZM41.066 13.0677H41.4508V11.0677H41.066V13.0677ZM42.4043 11.7665C40.4159 5.47117 34.522 0.891479 27.573 0.891479V2.89148C33.6225 2.89148 38.7633 6.8795 40.4972 12.3689L42.4043 11.7665ZM27.573 0.891479C20.624 0.891479 14.7301 5.47117 12.7416 11.7665L14.6488 12.3689C16.3826 6.8795 21.5235 2.89148 27.573 2.89148V0.891479ZM13.6952 13.0677H14.08V11.0677H13.6952V13.0677Z" fill="#414042" mask="url(#path-14-inside-1_1_20)"/>
<path d="M38.6833 17.3956C38.6833 17.3956 38.6829 17.3956 38.6827 17.3956C38.6173 17.3956 38.5559 17.4212 38.5094 17.4675C38.4622 17.5144 38.4366 17.5769 38.4366 17.6432V21.3561C38.4366 21.4921 38.5478 21.6031 38.6844 21.6035C39.2608 21.6048 40.2264 21.725 40.8923 22.4221V18.5364C40.8923 18.4905 40.8807 18.447 40.8582 18.4113C40.3115 17.5307 39.2612 17.397 38.6833 17.3956Z" fill="white"/>
<path d="M43.7326 21.3561V17.6432C43.7326 17.5769 43.7066 17.5144 43.6599 17.4675C43.6134 17.4212 43.5517 17.3956 43.4865 17.3956C43.4861 17.3956 43.4861 17.3956 43.4857 17.3956C42.908 17.397 41.8576 17.5307 41.3106 18.4113C41.2887 18.447 41.2767 18.4905 41.2767 18.5364V22.4221C41.9428 21.725 42.9082 21.6048 43.4846 21.6035C43.6216 21.6031 43.7326 21.4921 43.7326 21.3561Z" fill="white"/>
<path d="M44.2966 18.252H44.1172V21.3561C44.1172 21.7038 43.8339 21.9872 43.4857 21.988C42.9968 21.9892 42.1908 22.0848 41.62 22.6251C42.6072 22.3833 43.6479 22.5404 44.2411 22.6756C44.3152 22.6925 44.3918 22.675 44.4511 22.6278C44.5101 22.5806 44.5441 22.5101 44.5441 22.4345V18.4996C44.5443 18.363 44.4331 18.252 44.2966 18.252Z" fill="white"/>
<path d="M38.052 21.3561V18.252H37.8725C37.7359 18.252 37.6249 18.3629 37.6249 18.4996V22.4344C37.6249 22.51 37.659 22.5805 37.7181 22.6277C37.7775 22.675 37.8538 22.6924 37.9279 22.6755C38.5212 22.5402 39.5618 22.3832 40.5491 22.6248C39.9784 22.0845 39.1723 21.989 38.6833 21.9879C38.3352 21.987 38.052 21.7036 38.052 21.3561Z" fill="white"/>
<path d="M25.4574 32.7294C25.4574 32.2831 25.0944 31.9199 24.6479 31.9199H24.0584C23.9368 31.9199 23.8384 32.0184 23.8384 32.1401V33.3191C23.8384 33.4405 23.9368 33.5393 24.0584 33.5393H24.6479C25.0944 33.5393 25.4574 33.1761 25.4574 32.7294Z" fill="white"/>
<path d="M31.1328 31.9199H30.5431C30.0967 31.9199 29.7334 32.2831 29.7334 32.7294C29.7334 33.1761 30.0967 33.5393 30.5431 33.5393H31.1328C31.2543 33.5393 31.3528 33.4405 31.3528 33.3191V32.1401C31.3528 32.0184 31.2543 31.9199 31.1328 31.9199Z" fill="white"/>
<path d="M29.2463 31.4485C29.9698 31.4485 30.5586 30.8599 30.5586 30.136C30.5586 29.412 29.97 28.8232 29.2463 28.8232C28.5223 28.8232 27.9335 29.412 27.9335 30.136C27.9335 30.8599 28.5221 31.4485 29.2463 31.4485Z" fill="white"/>
<path d="M27.4931 30.1361C27.4931 29.4124 26.9043 28.8234 26.1808 28.8234C25.4568 28.8234 24.868 29.4122 24.868 30.1361C24.868 30.8601 25.4566 31.4487 26.1808 31.4487C26.9043 31.4485 27.4931 30.8599 27.4931 30.1361Z" fill="white"/>
<path d="M26.935 33.3192C26.935 32.5508 27.3122 31.8688 27.8906 31.4482C27.2655 31.4482 26.5443 31.4482 26.1808 31.4482C26.0334 31.4482 25.9449 31.4482 25.9446 31.4482C25.6775 31.4482 25.4236 31.5046 25.1938 31.6054C25.6101 31.8083 25.8977 32.2359 25.8977 32.7295C25.8977 33.4189 25.3371 33.9796 24.6479 33.9796H24.074V35.2055C24.074 35.3272 24.1724 35.4258 24.294 35.4258H25.017V34.467C25.017 34.3454 25.1158 34.2468 25.2372 34.2468C25.3589 34.2468 25.4572 34.3454 25.4572 34.467V35.4258H26.9726C26.9481 35.357 26.9349 35.2828 26.9349 35.2055V33.3192H26.935Z" fill="white"/>
<path d="M29.2931 32.7295C29.2931 32.2359 29.5807 31.8085 29.9972 31.6054C29.7672 31.5044 29.5133 31.4482 29.2462 31.4482C28.2129 31.4482 27.3752 32.2859 27.3752 33.3192V35.2055C27.3752 35.3272 27.4739 35.4258 27.5954 35.4258H29.7336V34.467C29.7336 34.3454 29.8319 34.2468 29.9536 34.2468C30.0753 34.2468 30.1738 34.3454 30.1738 34.467V35.4258H30.8967C31.0184 35.4258 31.1168 35.3272 31.1168 35.2055V33.9796H30.5429C29.8539 33.9796 29.2931 33.4189 29.2931 32.7295Z" fill="white"/>
</svg>
