<svg width="53" height="30" viewBox="0 0 53 30" fill="none" xmlns="http://www.w3.org/2000/svg">
<path d="M13.6582 24.6321L12.9038 20.208L16.0996 17.0748C16.3818 16.7982 16.4834 16.3844 16.3616 16.0075C16.2399 15.6306 15.9159 15.3558 15.526 15.2988L11.1095 14.6535L9.1344 10.6282C8.95998 10.2728 8.60016 10.0479 8.20618 10.0479C7.8122 10.0479 7.45228 10.2728 7.27796 10.6282L5.30289 14.6535L0.886402 15.2988C0.496459 15.3558 0.172559 15.6306 0.0507219 16.0075C-0.0711158 16.3844 0.0305363 16.7982 0.312719 17.0748L3.50845 20.208L2.75403 24.6321C2.68736 25.0228 2.84709 25.4175 3.16581 25.6504C3.34613 25.7822 3.55979 25.8492 3.77438 25.8492C3.93917 25.8492 4.10449 25.8097 4.25593 25.7297L8.20608 23.6408L12.1562 25.7297C12.505 25.9141 12.9275 25.8833 13.2463 25.6504C13.5652 25.4175 13.7248 25.0228 13.6582 24.6321ZM11.0688 19.0988C10.8248 19.3381 10.7134 19.6826 10.7711 20.0205L11.2629 22.9048L8.68753 21.543C8.38599 21.3836 8.02565 21.3836 7.72411 21.543L5.14906 22.9048L5.64086 20.0205C5.69852 19.6827 5.58714 19.3381 5.34315 19.0988L3.2597 17.0562L6.13898 16.6354C6.47613 16.5861 6.76763 16.3731 6.91835 16.0658L8.20597 13.4415L9.4936 16.0658C9.64442 16.3731 9.93582 16.5861 10.273 16.6354L13.1523 17.0562L11.0688 19.0988Z" fill="#FFB100"/>
<path d="M52.9493 16.0075C52.8275 15.6306 52.5035 15.3558 52.1136 15.2988L47.6971 14.6535L45.722 10.6282C45.5476 10.2728 45.1878 10.0479 44.7938 10.0479C44.3998 10.0479 44.0399 10.2728 43.8656 10.6282L41.8905 14.6535L37.474 15.2988C37.0841 15.3558 36.7602 15.6306 36.6383 16.0075C36.5165 16.3844 36.6182 16.7982 36.9003 17.0748L40.0962 20.208L39.3417 24.6321C39.2751 25.0228 39.4347 25.4175 39.7535 25.6504C40.0724 25.8833 40.4951 25.9139 40.8437 25.7297L44.7938 23.6408L48.7439 25.7297C48.8954 25.8099 49.0608 25.8492 49.2255 25.8492C49.4401 25.8492 49.6537 25.7821 49.8341 25.6504C50.1528 25.4175 50.3125 25.0228 50.2458 24.6321L49.4914 20.208L52.6872 17.0748C52.9695 16.7982 53.0711 16.3844 52.9493 16.0075ZM47.6568 19.0989C47.4128 19.3382 47.3015 19.6827 47.3591 20.0206L47.8509 22.9049L45.2756 21.5431C45.1247 21.4633 44.9593 21.4235 44.7939 21.4235C44.6285 21.4235 44.463 21.4634 44.3122 21.5431L41.7369 22.9049L42.2287 20.0206C42.2863 19.6828 42.175 19.3382 41.931 19.0989L39.8475 17.0563L42.7268 16.6355C43.064 16.5862 43.3554 16.3732 43.5062 16.0659L44.7938 13.4416L46.0814 16.0659C46.2322 16.3732 46.5236 16.5862 46.8608 16.6355L49.7401 17.0563L47.6568 19.0989Z" fill="#FFB100"/>
<path d="M33.986 21.1235L32.8282 14.3334L37.7328 9.52481C38.015 9.24817 38.1166 8.83441 37.9948 8.45751C37.8731 8.08061 37.5491 7.80584 37.1592 7.74879L30.3811 6.75822L27.3497 0.580347C27.1753 0.224996 26.8155 0 26.4215 0C26.0274 0 25.6676 0.224996 25.4933 0.580347L22.462 6.75822L15.6839 7.74879C15.2939 7.80584 14.97 8.08061 14.8482 8.45751C14.7263 8.83441 14.828 9.24817 15.1102 9.52481L20.0149 14.3334L18.857 21.1235C18.7904 21.5142 18.95 21.9089 19.2688 22.1418C19.5875 22.3747 20.0103 22.4053 20.3589 22.2211L26.4215 19.0153L32.4841 22.2211C32.6355 22.3013 32.801 22.3406 32.9656 22.3406C33.1802 22.3406 33.3939 22.2735 33.5742 22.1418C33.8929 21.9089 34.0526 21.5142 33.986 21.1235ZM30.6956 14.146L31.5908 19.3963L26.903 16.9174C26.7521 16.8377 26.5867 16.7979 26.4213 16.7979C26.256 16.7978 26.0906 16.8377 25.9397 16.9174L21.2519 19.3963L22.1473 14.146C22.2049 13.8083 22.0935 13.4637 21.8495 13.2244L18.0571 9.50628L23.2981 8.7404C23.6353 8.69104 23.9268 8.47802 24.0775 8.17077L26.4214 3.3939L28.7653 8.17077C28.9161 8.47802 29.2075 8.69104 29.5447 8.7404L34.7857 9.50628L30.9933 13.2244C30.7493 13.4637 30.6379 13.8082 30.6956 14.146Z" fill="#FFB100"/>
<path d="M28.7772 27.918H14.3886C13.8169 27.918 13.3535 28.3842 13.3535 28.9591C13.3535 29.5341 13.8169 30.0003 14.3886 30.0003H28.7772C29.349 30.0003 29.8124 29.5341 29.8124 28.9591C29.8124 28.3842 29.349 27.918 28.7772 27.918Z" fill="#FFB100"/>
<path d="M38.6113 27.918H34.1601C33.5884 27.918 33.1249 28.3842 33.1249 28.9591C33.1249 29.5341 33.5884 30.0003 34.1601 30.0003H38.6113C39.183 30.0003 39.6464 29.5341 39.6464 28.9591C39.6464 28.3842 39.183 27.918 38.6113 27.918Z" fill="#FFB100"/>
</svg>
