<svg width="24" height="24" viewBox="0 0 24 24" fill="none" xmlns="http://www.w3.org/2000/svg">
<path fill-rule="evenodd" clip-rule="evenodd" d="M12 2C6.47715 2 2 6.47715 2 12C2 17.5228 6.47715 22 12 22C17.5228 22 22 17.5228 22 12C22 6.47715 17.5228 2 12 2ZM0 12C0 5.37258 5.37258 0 12 0C18.6274 0 24 5.37258 24 12C24 18.6274 18.6274 24 12 24C5.37258 24 0 18.6274 0 12Z" fill="#00833E"/>
<path fill-rule="evenodd" clip-rule="evenodd" d="M11.9998 7.49982C10.0208 7.49982 8.4165 9.10413 8.4165 11.0832C8.4165 13.0622 10.0208 14.6665 11.9998 14.6665C13.9789 14.6665 15.5832 13.0622 15.5832 11.0832C15.5832 9.10413 13.9789 7.49982 11.9998 7.49982ZM6.4165 11.0832C6.4165 7.99956 8.91625 5.49982 11.9998 5.49982C15.0834 5.49982 17.5832 7.99956 17.5832 11.0832C17.5832 14.1667 15.0834 16.6665 11.9998 16.6665C8.91625 16.6665 6.4165 14.1667 6.4165 11.0832Z" fill="#00833E"/>
<path fill-rule="evenodd" clip-rule="evenodd" d="M12 16.6656C10.6612 16.6656 9.34846 17.0363 8.20741 17.7367C7.06635 18.4371 6.14153 19.4398 5.53544 20.6336C5.28542 21.126 4.68353 21.3226 4.19108 21.0725C3.69862 20.8225 3.50209 20.2206 3.7521 19.7282C4.52539 18.205 5.70534 16.9258 7.16117 16.0322C8.61699 15.1386 10.2918 14.6656 12 14.6656C13.7082 14.6656 15.383 15.1386 16.8389 16.0322C18.2947 16.9258 19.4746 18.205 20.2479 19.7282C20.4979 20.2206 20.3014 20.8225 19.809 21.0725C19.3165 21.3226 18.7146 21.126 18.4646 20.6336C17.8585 19.4398 16.9337 18.4371 15.7926 17.7367C14.6516 17.0363 13.3389 16.6656 12 16.6656Z" fill="#00833E"/>
<circle cx="12" cy="11" r="5" fill="#00833E"/>
</svg>
